<mxfile host="app.diagrams.net" modified="2023-05-26T06:21:54.132Z" agent="Mozilla/5.0 (Windows NT 10.0; Win64; x64) AppleWebKit/537.36 (KHTML, like Gecko) Chrome/113.0.0.0 Safari/537.36" etag="1-fQ8NW1jk5BN6IGsJnQ" version="21.3.4" type="device">
  <diagram name="페이지-1" id="25bbKA3XMHADTeWNIabA">
    <mxGraphModel dx="792" dy="689" grid="1" gridSize="10" guides="1" tooltips="1" connect="1" arrows="1" fold="1" page="1" pageScale="1" pageWidth="4681" pageHeight="3300" math="0" shadow="0">
      <root>
        <mxCell id="0" />
        <mxCell id="1" parent="0" />
        <mxCell id="g8pyV95nXQjB1F9MP8nr-8" style="rounded=0;orthogonalLoop=1;jettySize=auto;html=1;entryX=0.5;entryY=0;entryDx=0;entryDy=0;exitX=0.5;exitY=1;exitDx=0;exitDy=0;" edge="1" parent="1" source="g8pyV95nXQjB1F9MP8nr-1" target="g8pyV95nXQjB1F9MP8nr-3">
          <mxGeometry relative="1" as="geometry" />
        </mxCell>
        <mxCell id="g8pyV95nXQjB1F9MP8nr-9" style="rounded=0;orthogonalLoop=1;jettySize=auto;html=1;entryX=0.5;entryY=0;entryDx=0;entryDy=0;exitX=0.5;exitY=1;exitDx=0;exitDy=0;" edge="1" parent="1" source="g8pyV95nXQjB1F9MP8nr-1" target="g8pyV95nXQjB1F9MP8nr-7">
          <mxGeometry relative="1" as="geometry" />
        </mxCell>
        <mxCell id="g8pyV95nXQjB1F9MP8nr-10" style="edgeStyle=orthogonalEdgeStyle;rounded=0;orthogonalLoop=1;jettySize=auto;html=1;entryX=0.5;entryY=0;entryDx=0;entryDy=0;" edge="1" parent="1" source="g8pyV95nXQjB1F9MP8nr-1" target="g8pyV95nXQjB1F9MP8nr-6">
          <mxGeometry relative="1" as="geometry" />
        </mxCell>
        <mxCell id="g8pyV95nXQjB1F9MP8nr-11" style="edgeStyle=none;shape=connector;rounded=0;orthogonalLoop=1;jettySize=auto;html=1;entryX=0.5;entryY=0;entryDx=0;entryDy=0;labelBackgroundColor=default;strokeColor=default;fontFamily=Helvetica;fontSize=11;fontColor=default;endArrow=classic;exitX=0.5;exitY=1;exitDx=0;exitDy=0;" edge="1" parent="1" source="g8pyV95nXQjB1F9MP8nr-1" target="g8pyV95nXQjB1F9MP8nr-5">
          <mxGeometry relative="1" as="geometry" />
        </mxCell>
        <mxCell id="g8pyV95nXQjB1F9MP8nr-12" style="edgeStyle=none;shape=connector;rounded=0;orthogonalLoop=1;jettySize=auto;html=1;entryX=0.5;entryY=0;entryDx=0;entryDy=0;labelBackgroundColor=default;strokeColor=default;fontFamily=Helvetica;fontSize=11;fontColor=default;endArrow=classic;exitX=0.5;exitY=1;exitDx=0;exitDy=0;" edge="1" parent="1" source="g8pyV95nXQjB1F9MP8nr-1" target="g8pyV95nXQjB1F9MP8nr-4">
          <mxGeometry relative="1" as="geometry" />
        </mxCell>
        <mxCell id="g8pyV95nXQjB1F9MP8nr-1" value="메모장" style="rounded=1;arcSize=10;whiteSpace=wrap;html=1;align=center;" vertex="1" parent="1">
          <mxGeometry x="360" y="160" width="100" height="40" as="geometry" />
        </mxCell>
        <mxCell id="g8pyV95nXQjB1F9MP8nr-3" value="일련번호" style="ellipse;whiteSpace=wrap;html=1;align=center;fontStyle=4;" vertex="1" parent="1">
          <mxGeometry x="120" y="280" width="100" height="40" as="geometry" />
        </mxCell>
        <mxCell id="g8pyV95nXQjB1F9MP8nr-4" value="내용" style="ellipse;whiteSpace=wrap;html=1;align=center;" vertex="1" parent="1">
          <mxGeometry x="600" y="280" width="100" height="40" as="geometry" />
        </mxCell>
        <mxCell id="g8pyV95nXQjB1F9MP8nr-5" value="제목" style="ellipse;whiteSpace=wrap;html=1;align=center;" vertex="1" parent="1">
          <mxGeometry x="480" y="280" width="100" height="40" as="geometry" />
        </mxCell>
        <mxCell id="g8pyV95nXQjB1F9MP8nr-6" value="작성일자" style="ellipse;whiteSpace=wrap;html=1;align=center;" vertex="1" parent="1">
          <mxGeometry x="360" y="280" width="100" height="40" as="geometry" />
        </mxCell>
        <mxCell id="g8pyV95nXQjB1F9MP8nr-7" value="작성자" style="ellipse;whiteSpace=wrap;html=1;align=center;" vertex="1" parent="1">
          <mxGeometry x="240" y="280" width="100" height="40" as="geometry" />
        </mxCell>
      </root>
    </mxGraphModel>
  </diagram>
</mxfile>
